<svg xmlns="http://www.w3.org/2000/svg" viewBox="-2 -2 79 79" fill="#888">
  <rect x="0" y="20" width="20" height="5" rx="2"/>
  <rect x="0" y="30" width="20" height="5" rx="2"/>
  <rect x="0" y="40" width="20" height="5" rx="2"/>
  <rect x="0" y="50" width="20" height="5" rx="2"/>
  <rect x="55" y="20" width="20" height="5" rx="2"/>
  <rect x="55" y="30" width="20" height="5" rx="2"/>
  <rect x="55" y="40" width="20" height="5" rx="2"/>
  <rect x="55" y="50" width="20" height="5" rx="2"/>
  
  <rect x="20" y="0" width="5" height="20" rx="2"/>
  <rect x="30" y="0" width="5" height="20" rx="2"/>
  <rect x="40" y="0" width="5" height="20" rx="2"/>
  <rect x="50" y="0" width="5" height="20" rx="2"/>
  <rect x="20" y="55" width="5" height="20" rx="2"/>
  <rect x="30" y="55" width="5" height="20" rx="2"/>
  <rect x="40" y="55" width="5" height="20" rx="2"/>
  <rect x="50" y="55" width="5" height="20" rx="2"/>
  
  <rect x="10" y="10" width="55" height="55" rx="5" fill="#333"/>
  
  <circle cx="19" cy="19" r="3" fill="#dadada"/>
</svg>